# xmcd
# 
# Track frame offsets:
#     150
#     3692
#     17295
#     34868
#     48472
#     64346
#     80218
#     97223
#     113662
#     131802
#     144272
#     159010
#     173182
#     191746
#     204501
#     220373
#     233411
#     253818
#     273941
#     294064
#     310857
#     331264
# 
# Disc length: 4659
# 
# Revision: 2
# Processed by: cddbd v1.5.2PL0 Copyright (c) Steve Scherf et al.
# Submitted via: BonkEnc v1.0.5
# 
DISCID=37123116
DTITLE=Various Artist - The Disco Boys Vol 8-CD1-2007
DYEAR=2007
DGENRE=House
TTITLE0=THE DISCO BOYS - "INTRO VOLUME 8"
TTITLE1=PRYDA - "ARMED"
TTITLE2=IDA CORR VS. FEDDE LE GRAND - "LET ME THINK ABOUT IT" [CLUB MIX]
TTITLE3=KURD MAVERICK - "STRINGS OF TORTUGA" [INSTRUMENTAL]
TTITLE4=THE DISCO BOYS - "START ALL OVER AGAIN" [EXTENDED MIX]
TTITLE5=HENRIK B FEAT. TERRI B - "SOULHEAVEN" [FONZERELLI REMIX]
TTITLE6=MICHI LANGE - "BROTHERS AND SISTERS" [IAN CAREY REMIX]
TTITLE7=S and H PROJECT - "PERCULATE IT" [SPENCER and HILL MIX]
TTITLE8=ROBYN WITH KLEERUP - "WITH EVERY HEARTBEAT" [PUNKS JUMP UP REMIX]
TTITLE9=FEDERICO FRANCHI - "CREAM" [ORIGINAL]
TTITLE10=MY MINE - "HYPNOTIC TANGO"
TTITLE11=REN￉ AMESZ and PETER GELDERBLOM - "SNAP" [CHRIS LAKE and MICKY SLIM REMIX]
TTITLE12=F and K - "DIE MIT DEM ROTEN HALSBAND" [ORIGINAL MIX]
TTITLE13=EYERER and CHOPSTICK FEAT. ZDAR - "MAKE MY DAY (HAUNTING)" [DABRUCK and KLEIN REMIX]
TTITLE14=DIGITALISM - "IDEALISTIC" [EXTENDED MIX]
TTITLE15=AXWELL - "I FOUND U" [THE DISCO BOYS REMIX]
TTITLE16=SPIT - "FALLING" [DADDY?S GROOVE VOCAL MIX]
TTITLE17=DUBFIRE - "ROADKILL" [BREAKFAST REMIX]
TTITLE18=EDDIE THONEICK FEAT. BERGET LEWIS - "FORGIVENESS" [EDDIE THONEICK?S LIFTED DUB]
TTITLE19=PARTIAL ARTS- "TRAUERMUSIK" [ALTER EGO MIX]
TTITLE20=CHANEL - "MY LIFE" [FONZERELLI REMIX]
TTITLE21=ZYON - "NO FATE" [STRUGGLE CONTINOUS MIX]
EXTD=
EXTT0=
EXTT1=
EXTT2=
EXTT3=
EXTT4=
EXTT5=
EXTT6=
EXTT7=
EXTT8=
EXTT9=
EXTT10=
EXTT11=
EXTT12=
EXTT13=
EXTT14=
EXTT15=
EXTT16=
EXTT17=
EXTT18=
EXTT19=
EXTT20=
EXTT21=
PLAYORDER=
